<svg width="100" height="100" viewBox="0 0 100 100" fill="none" xmlns="http://www.w3.org/2000/svg">
<path d="M37.9029 1.27704C12.5719 7.95594 -3.79954 33.124 0.761667 58.6179C4.83417 81.3424 23.8935 98.3655 47.1067 99.9131C59.5686 100.728 73.9038 95.7591 83.2706 87.5326C88.5648 82.8085 94.9994 73.3603 97.3614 66.6814C99.8864 59.5138 100.538 45.5859 98.6646 38.2554C95.3252 24.979 85.9584 12.5986 74.474 6.24549C64.1298 0.462538 48.8172 -1.57371 37.9029 1.27704ZM60.1388 10.1551C67.6322 12.1099 72.9264 15.2864 79.0352 21.4766C87.5874 30.1104 90.8454 38.011 90.8454 50.1471C90.8454 61.5501 87.0987 70.6725 79.1166 78.5731C72.7635 84.9262 68.0394 87.6141 59.7315 89.7318C45.1519 93.3971 30.7353 89.0802 20.2282 77.9215C12.4905 69.6951 9.23247 61.5501 9.15102 50.4729C8.98812 38.4997 13.305 28.3999 22.0201 20.0105C31.7941 10.7252 47.1067 6.73419 60.1388 10.1551Z" fill="white"/>
<path d="M47.0251 18.8702C45.6405 20.2549 45.6405 50.4728 47.1066 52.2647C48.7356 54.3824 70.3198 68.3918 71.8674 68.3918C75.0439 68.3918 76.9987 64.808 75.2068 62.5274C74.6367 61.7944 69.6682 58.292 64.2111 54.6268L54.1927 48.0293V34.2643C54.1927 22.7798 53.9484 20.2549 52.8895 19.196C51.4234 17.6485 48.4098 17.4856 47.0251 18.8702Z" fill="white"/>
</svg>
