<svg width="102" height="100" viewBox="0 0 102 100" fill="none" xmlns="http://www.w3.org/2000/svg">
<path d="M35.7126 0.653904C31.7331 1.95032 28.8171 4.06551 26.7244 7.23831C24.6317 10.4452 24.2887 11.6734 24.0828 16.8932L23.877 21.6694L15.472 21.84C7.16996 22.0106 7.03273 22.0106 5.31743 22.9317C3.3963 23.9211 2.12697 25.2516 0.960569 27.435C0.240142 28.7997 0.205836 29.2091 0.102918 40.6721L0 52.5445H6.65537C13.9969 52.5445 14.8202 52.7151 17.0158 54.6597C18.9712 56.3314 19.726 58.1054 19.726 60.9029C19.726 64.5534 18.1136 67.0438 14.7859 68.545C13.4137 69.159 12.5217 69.2614 6.62106 69.2614H0L0.102918 81.0997C0.205836 92.5968 0.240142 93.0062 0.960569 94.3708C2.12697 96.5202 3.22477 97.6801 5.24882 98.7718L7.06704 99.7953L19.5201 99.8977L31.9389 100V94.0979C31.9389 90.8569 32.1104 87.65 32.282 86.9676C33.1053 83.9654 36.9819 81.202 40.3439 81.202C43.7402 81.202 47.4109 83.8631 48.3372 86.9676C48.5773 87.7182 48.7489 90.6863 48.7489 94.132V100L60.6874 99.8977L72.5915 99.7953L74.4098 98.7718C76.4338 97.6801 77.5316 96.5202 78.698 94.3708C79.4184 93.0744 79.4527 92.4603 79.5557 85.0571L79.6586 77.1763L84.3585 77.0399C89.8818 76.8693 91.7686 76.2893 95.1649 73.7647C104.016 67.078 103.57 53.3633 94.3073 47.3589C91.0825 45.2778 89.8475 44.9366 84.5987 44.7319L79.7958 44.5272L79.6243 36.6805C79.4527 28.9703 79.4527 28.7997 78.5265 27.0939C77.5316 25.2175 75.8506 23.614 73.7923 22.6247C72.7974 22.1129 71.3222 21.9765 64.7012 21.84L56.8108 21.6694L56.6392 16.8932C56.4677 12.2534 56.3991 12.0146 55.1984 9.55821C53.6889 6.38541 51.9393 4.37256 49.2978 2.66675C45.284 0.108047 39.9322 -0.71074 35.7126 0.653904ZM43.8088 8.67119C45.8328 9.59232 47.7883 11.7416 48.3372 13.618C48.6116 14.4368 48.7489 17.6778 48.7489 22.3176V29.6867H59.6239C69.2296 29.6867 70.5675 29.7549 71.1164 30.2667C71.6996 30.7784 71.7339 31.5972 71.7339 41.6956V52.5445H79.144C83.8096 52.5445 87.0687 52.681 87.892 52.9539C89.6416 53.4656 91.8029 55.3079 92.7292 57.1161C93.827 59.1971 93.7927 62.4382 92.6263 64.6557C91.6657 66.5662 89.5044 68.3744 87.5833 68.9202C86.8972 69.0908 83.0206 69.2614 79.0411 69.2614H71.7339V80.008C71.7339 90.311 71.6996 90.7887 71.0478 91.4369C70.396 92.0851 69.9157 92.1192 63.5348 92.1192H56.7079L56.5706 88.7417C56.4677 85.603 56.3648 85.1936 54.9926 82.4643C53.2086 78.9162 50.7729 76.5281 47.0336 74.7541C44.5292 73.56 44.3577 73.5259 40.3439 73.5259C36.2958 73.5259 36.1585 73.56 33.5856 74.7882C30.5324 76.2211 28.1996 78.2339 26.5529 80.7926C24.8376 83.4196 24.323 85.0571 24.0828 88.7076L23.877 91.9486L16.6041 92.0509C9.6743 92.1192 9.26263 92.0851 8.61081 91.4369C7.959 90.7887 7.92469 90.311 7.92469 83.9313V77.1081H10.9436C16.0552 77.1081 19.6574 75.6752 23.0193 72.3318C30.3608 65.031 29.1258 52.988 20.4464 47.2906C17.6676 45.4483 16.0552 44.9707 11.8699 44.7319L8.09622 44.5272L7.9933 37.9087C7.92469 32.416 7.9933 31.1537 8.43928 30.5055L8.95387 29.6867H20.4464H31.9389V22.3176C31.9389 14.0956 32.1447 13.0039 33.9287 10.9229C36.4673 7.95475 40.3439 7.06773 43.8088 8.67119Z" fill="#F68C65"/>
</svg>
