<svg width="74" height="100" viewBox="0 0 74 100" fill="none" xmlns="http://www.w3.org/2000/svg">
<path d="M31.4712 0.269122C27.4447 0.865747 24.1558 1.84024 20.6078 3.53067C16.2824 5.59897 13.4918 7.56784 10.2428 10.8095C4.74132 16.2985 1.39262 22.9409 0.256448 30.6373C-0.182073 33.6205 -0.042544 39.1492 0.555439 42.0329C1.37268 46.0104 3.30616 50.7436 5.4589 54.1046C8.14982 58.281 12.8938 62.9545 16.5615 65.0626L17.3189 65.5001V72.6994C17.3189 77.0548 17.3986 80.2964 17.5382 80.8931C17.8371 82.3051 18.7142 83.4188 19.97 84.0154L21.0065 84.4927H36.6935C47.2181 84.4927 52.56 84.433 52.9388 84.2739C54.055 83.8563 54.9719 83.0608 55.4902 82.0465L55.9885 81.0323V73.3358V65.6592L57.1446 64.9035C65.2572 59.5538 70.7188 51.7976 72.7121 42.8284C77.2169 22.4636 62.7257 2.83461 41.2382 0.169685C39.0058 -0.0888529 33.604 -0.0490779 31.4712 0.269122ZM42.4342 9.61625C46.2214 10.4316 49.4107 11.784 52.58 13.8921C58.3405 17.7502 62.3072 23.5176 63.7822 30.1998C64.3802 32.8846 64.44 37.5582 63.9018 40.0839C62.7457 45.5132 60.5531 49.5504 56.6064 53.4682C54.0151 56.0536 51.7029 57.6843 48.7329 59.0566L46.8194 59.9316V67.6281V75.3445H36.6537H26.488L26.5278 67.6082L26.5876 59.872L24.694 59.0168C17.1794 55.5962 11.7178 49.0134 9.72451 40.9391C9.1066 38.3736 9.0468 32.7653 9.62485 30.2993C10.9603 24.6114 13.4121 20.3953 17.7973 16.2985C21.4649 12.838 26.767 10.3123 32.2685 9.41737C34.5009 9.03951 40.3412 9.15884 42.4342 9.61625Z" fill="#F68C65"/>
<path d="M25.6109 91.2545C23.8369 92.1494 23.0197 93.462 22.9997 95.4507C22.9997 96.5644 23.0795 96.9025 23.5977 97.7378C24.2754 98.8117 25.1525 99.4879 26.2687 99.8061C27.2255 100.065 46.2812 100.065 47.2181 99.8061C48.7529 99.3885 50.0485 97.9963 50.3874 96.4053C50.8458 94.337 49.8691 92.3085 47.9954 91.3738L46.939 90.8567H36.6736C26.8468 90.8766 26.3484 90.8965 25.6109 91.2545Z" fill="#F68C65"/>
</svg>
