<svg width="70" height="100" viewBox="0 0 70 100" fill="none" xmlns="http://www.w3.org/2000/svg">
<path d="M24.402 1.51301C18.1311 3.62533 13.9505 6.46884 9.30538 11.5059C-0.139702 22.0675 -2.46226 34.9852 2.64737 48.634C4.27316 52.9399 5.89896 55.2147 10.7763 60.333L16.815 66.67V74.2256C16.815 84.9496 15.9634 84.4622 35.1632 84.4622C54.0534 84.4622 53.2018 84.9496 53.2018 73.8193V66.1825L58.6211 61.0642C69.9242 50.3401 73.0984 34.9852 66.8275 20.6864C64.5823 15.4868 58.1566 8.01246 53.3566 5.0877C45.1503 -0.0306091 33.3052 -1.41174 24.402 1.51301ZM45.6148 11.0997C50.105 13.212 55.7566 18.6553 58.3889 23.3674C61.0985 28.1607 61.7179 37.5849 59.8598 43.6782C58.234 48.7965 53.047 55.0522 48.247 57.7332L44.7632 59.6831L44.5309 67.4011L44.2986 75.1192L34.8536 75.363L25.3311 75.6067V67.5636V59.5206L22.1569 58.0582C17.9763 56.0271 11.8602 48.8777 10.3118 44.1656C8.60861 38.8036 8.68603 29.7044 10.5441 25.3985C13.486 18.7365 20.3763 12.3183 27.1117 10.0435C31.6794 8.41867 41.0471 8.98737 45.6148 11.0997Z" fill="white"/>
<path d="M23.1632 91.9366C21.8471 93.3178 22.0019 97.1362 23.4729 98.5986C25.2535 100.467 44.763 100.467 46.5436 98.5986C48.0146 97.1362 48.1694 93.3178 46.8533 91.9366C45.5372 90.5555 24.4793 90.5555 23.1632 91.9366Z" fill="white"/>
</svg>
