<svg width="286" height="59" viewBox="0 0 286 59" fill="none" xmlns="http://www.w3.org/2000/svg">
<path d="M74.2031 29.4219H76.7656C77.4219 29.4219 77.9583 29.3073 78.375 29.0781C78.8021 28.8385 79.1198 28.5052 79.3281 28.0781C79.5365 27.6406 79.6406 27.125 79.6406 26.5312C79.6406 26.0729 79.5417 25.651 79.3438 25.2656C79.1562 24.8802 78.8646 24.5729 78.4688 24.3438C78.0729 24.1042 77.5677 23.9844 76.9531 23.9844C76.5365 23.9844 76.1302 24.0729 75.7344 24.25C75.3385 24.4167 75.0104 24.6562 74.75 24.9688C74.5 25.2812 74.375 25.6615 74.375 26.1094H69.0938C69.0938 24.8177 69.4479 23.7135 70.1562 22.7969C70.875 21.8698 71.8177 21.1615 72.9844 20.6719C74.1615 20.1719 75.4271 19.9219 76.7812 19.9219C78.3958 19.9219 79.8125 20.1719 81.0312 20.6719C82.25 21.1615 83.1979 21.8906 83.875 22.8594C84.5625 23.8177 84.9062 25.0052 84.9062 26.4219C84.9062 27.2031 84.724 27.9375 84.3594 28.625C83.9948 29.3125 83.4844 29.9167 82.8281 30.4375C82.1719 30.9583 81.401 31.3698 80.5156 31.6719C79.6406 31.9635 78.6823 32.1094 77.6406 32.1094H74.2031V29.4219ZM74.2031 33.3438V30.7188H77.6406C78.776 30.7188 79.8125 30.849 80.75 31.1094C81.6875 31.3594 82.4948 31.7344 83.1719 32.2344C83.849 32.7344 84.3698 33.3542 84.7344 34.0938C85.099 34.8229 85.2812 35.6615 85.2812 36.6094C85.2812 37.6719 85.0677 38.6198 84.6406 39.4531C84.2135 40.2865 83.6146 40.9896 82.8438 41.5625C82.0729 42.1354 81.1719 42.5729 80.1406 42.875C79.1094 43.1667 77.9896 43.3125 76.7812 43.3125C75.8333 43.3125 74.8854 43.1875 73.9375 42.9375C72.9896 42.6771 72.125 42.2812 71.3438 41.75C70.5625 41.2083 69.9323 40.5208 69.4531 39.6875C68.9844 38.8438 68.75 37.8385 68.75 36.6719H74.0312C74.0312 37.151 74.1615 37.5885 74.4219 37.9844C74.6927 38.3698 75.0521 38.6771 75.5 38.9062C75.9479 39.1354 76.4323 39.25 76.9531 39.25C77.599 39.25 78.1458 39.1302 78.5938 38.8906C79.0521 38.6406 79.401 38.3073 79.6406 37.8906C79.8802 37.474 80 37.0104 80 36.5C80 35.7292 79.8698 35.1146 79.6094 34.6562C79.3594 34.1979 78.9896 33.8646 78.5 33.6562C78.0208 33.4479 77.4427 33.3438 76.7656 33.3438H74.2031ZM95.8475 43H90.8006L90.8319 38.7812H95.8475C96.8892 38.7812 97.7694 38.5312 98.4881 38.0312C99.2173 37.5312 99.7694 36.7865 100.144 35.7969C100.53 34.7969 100.722 33.5677 100.722 32.1094V31.125C100.722 30.0312 100.613 29.0729 100.394 28.25C100.186 27.4167 99.8735 26.724 99.4569 26.1719C99.0402 25.6094 98.5194 25.1875 97.8944 24.9062C97.2798 24.625 96.5715 24.4844 95.7694 24.4844H90.7069V20.25H95.7694C97.311 20.25 98.7225 20.5156 100.004 21.0469C101.295 21.5677 102.41 22.3177 103.347 23.2969C104.295 24.2656 105.025 25.4167 105.535 26.75C106.056 28.0729 106.316 29.5417 106.316 31.1562V32.1094C106.316 33.7135 106.056 35.1823 105.535 36.5156C105.025 37.849 104.301 39 103.363 39.9688C102.426 40.9375 101.316 41.6875 100.035 42.2188C98.7642 42.7396 97.3683 43 95.8475 43ZM93.9412 20.25V43H88.4569V20.25H93.9412ZM130.402 35.2969H135.871C135.798 36.8802 135.371 38.276 134.589 39.4844C133.808 40.6927 132.725 41.6354 131.339 42.3125C129.964 42.9792 128.339 43.3125 126.464 43.3125C124.944 43.3125 123.584 43.0573 122.386 42.5469C121.199 42.0365 120.188 41.3021 119.355 40.3438C118.532 39.3854 117.902 38.224 117.464 36.8594C117.037 35.4948 116.824 33.9583 116.824 32.25V31.0156C116.824 29.3073 117.048 27.7708 117.496 26.4062C117.954 25.0312 118.6 23.8646 119.433 22.9062C120.277 21.9375 121.287 21.1979 122.464 20.6875C123.641 20.1771 124.949 19.9219 126.386 19.9219C128.365 19.9219 130.037 20.276 131.402 20.9844C132.766 21.6927 133.824 22.6667 134.574 23.9062C135.324 25.1354 135.766 26.5365 135.902 28.1094H130.433C130.412 27.2552 130.266 26.5417 129.996 25.9688C129.725 25.3854 129.298 24.9479 128.714 24.6562C128.131 24.3646 127.355 24.2188 126.386 24.2188C125.709 24.2188 125.121 24.3438 124.621 24.5938C124.121 24.8438 123.704 25.2396 123.371 25.7812C123.037 26.3229 122.787 27.026 122.621 27.8906C122.464 28.7448 122.386 29.776 122.386 30.9844V32.25C122.386 33.4583 122.459 34.4896 122.605 35.3438C122.751 36.1979 122.985 36.8958 123.308 37.4375C123.631 37.9792 124.048 38.3802 124.558 38.6406C125.079 38.8906 125.714 39.0156 126.464 39.0156C127.298 39.0156 128.001 38.8854 128.574 38.625C129.147 38.3542 129.589 37.9479 129.902 37.4062C130.214 36.8542 130.381 36.151 130.402 35.2969ZM138.624 20.25H147.577C149.327 20.25 150.848 20.5104 152.14 21.0312C153.432 21.5521 154.426 22.3229 155.124 23.3438C155.833 24.3646 156.187 25.625 156.187 27.125C156.187 28.4271 155.984 29.5156 155.577 30.3906C155.171 31.2656 154.604 31.9896 153.874 32.5625C153.156 33.125 152.317 33.5885 151.359 33.9531L149.562 34.9688H142.046L142.015 30.7344H147.577C148.275 30.7344 148.854 30.6094 149.312 30.3594C149.77 30.1094 150.114 29.7552 150.343 29.2969C150.583 28.8281 150.702 28.2708 150.702 27.625C150.702 26.9688 150.583 26.4062 150.343 25.9375C150.104 25.4688 149.749 25.1094 149.281 24.8594C148.822 24.6094 148.255 24.4844 147.577 24.4844H144.109V43H138.624V20.25ZM151.077 43L146.046 32.9375L151.859 32.9062L156.952 42.7656V43H151.077ZM175.316 38.7812V43H163.191V38.7812H175.316ZM165.144 20.25V43H159.659V20.25H165.144ZM173.753 29.2812V33.3594H163.191V29.2812H173.753ZM175.363 20.25V24.4844H163.191V20.25H175.363ZM187.366 25.0312L181.819 43H175.929L184.288 20.25H188.022L187.366 25.0312ZM191.96 43L186.397 25.0312L185.679 20.25H189.46L197.866 43H191.96ZM191.741 34.5156V38.75H180.069V34.5156H191.741ZM208.839 20.25V43H203.354V20.25H208.839ZM215.682 20.25V24.4844H196.667V20.25H215.682ZM223.999 20.25V43H218.53V20.25H223.999ZM236.628 37.6406L241.362 20.25H247.503L239.831 43H235.862L236.628 37.6406ZM232.331 20.25L237.065 37.6406L237.862 43H233.846L226.221 20.25H232.331ZM264.991 38.7812V43H252.866V38.7812H264.991ZM254.819 20.25V43H249.334V20.25H254.819ZM263.428 29.2812V33.3594H252.866V29.2812H263.428ZM265.038 20.25V24.4844H252.866V20.25H265.038ZM279.119 36.9531C279.119 36.599 279.067 36.2812 278.963 36C278.859 35.7083 278.666 35.4375 278.385 35.1875C278.104 34.9375 277.697 34.6875 277.166 34.4375C276.645 34.1771 275.958 33.9062 275.104 33.625C274.104 33.2917 273.14 32.9167 272.213 32.5C271.286 32.0729 270.458 31.5781 269.729 31.0156C269 30.4427 268.421 29.776 267.994 29.0156C267.567 28.2448 267.354 27.349 267.354 26.3281C267.354 25.349 267.572 24.4688 268.01 23.6875C268.447 22.8958 269.057 22.224 269.838 21.6719C270.63 21.1094 271.557 20.6823 272.619 20.3906C273.682 20.0885 274.843 19.9375 276.104 19.9375C277.77 19.9375 279.239 20.2292 280.51 20.8125C281.791 21.3854 282.791 22.2031 283.51 23.2656C284.239 24.3177 284.604 25.5625 284.604 27H279.151C279.151 26.4271 279.031 25.9219 278.791 25.4844C278.562 25.0469 278.213 24.7031 277.744 24.4531C277.276 24.2031 276.687 24.0781 275.979 24.0781C275.291 24.0781 274.713 24.1823 274.244 24.3906C273.776 24.599 273.421 24.8802 273.182 25.2344C272.942 25.5781 272.822 25.9583 272.822 26.375C272.822 26.7188 272.916 27.0312 273.104 27.3125C273.302 27.5833 273.578 27.8385 273.932 28.0781C274.296 28.3177 274.734 28.5469 275.244 28.7656C275.765 28.9844 276.349 29.1979 276.994 29.4062C278.203 29.7917 279.276 30.224 280.213 30.7031C281.161 31.1719 281.958 31.7083 282.604 32.3125C283.26 32.9062 283.755 33.5833 284.088 34.3438C284.432 35.1042 284.604 35.9635 284.604 36.9219C284.604 37.9427 284.406 38.849 284.01 39.6406C283.614 40.4323 283.046 41.1042 282.307 41.6562C281.567 42.1979 280.682 42.6094 279.651 42.8906C278.619 43.1719 277.468 43.3125 276.197 43.3125C275.031 43.3125 273.88 43.1667 272.744 42.875C271.619 42.5729 270.599 42.1146 269.682 41.5C268.765 40.875 268.031 40.0781 267.479 39.1094C266.937 38.1302 266.666 36.9688 266.666 35.625H272.166C272.166 36.2917 272.255 36.8542 272.432 37.3125C272.609 37.7708 272.869 38.1406 273.213 38.4219C273.557 38.6927 273.979 38.8906 274.479 39.0156C274.979 39.1302 275.552 39.1875 276.197 39.1875C276.895 39.1875 277.458 39.0885 277.885 38.8906C278.312 38.6823 278.625 38.4115 278.822 38.0781C279.02 37.7344 279.119 37.3594 279.119 36.9531Z" fill="white"/>
<path d="M31.3836 10.4542C27.1184 18.3661 25.6168 21.0456 25.5286 20.9065C25.4654 20.8181 23.8375 17.8606 21.9322 14.3343C20.0267 10.8207 18.4369 7.93907 18.399 7.93907C18.3232 7.95171 0.0513319 41.6469 0.000856956 41.8871C-0.0369991 42.0388 1.16178 42.064 7.10519 42.064C13.5534 42.064 14.26 42.0893 14.1843 42.2661C14.1464 42.3673 12.1527 46.0832 9.75512 50.5194C7.3702 54.9555 5.37643 58.6715 5.32596 58.7852C5.25024 58.9875 7.39543 59 37.1252 59C54.6524 59 69 58.9748 69 58.9495C69 58.9116 39.6615 4.51393 37.2134 0.00185826C37.1503 -0.0992526 34.9042 3.93255 31.3836 10.4542Z" fill="white"/>
</svg>
