<svg width="102" height="100" viewBox="0 0 102 100" fill="none" xmlns="http://www.w3.org/2000/svg">
<path d="M34.3802 1.2269C28.27 3.91183 25.3371 8.30537 24.6853 16.1975L24.1965 21.486L14.9904 21.8928C5.78434 22.2996 5.70288 22.2996 3.34026 24.9845C0.977636 27.5881 0.977636 27.7508 0.977636 37.2701C0.977636 42.5586 0.733227 48.0912 0.488818 49.4744L0 51.9966H5.13259C16.131 52.078 20.123 54.3561 20.123 60.6209C20.123 63.794 19.7157 64.689 17.4345 66.7231C14.9904 68.9198 14.4201 69.0826 7.65815 69.0826H0.570288L0.896166 81.4495C1.30351 99.5932 1.71086 100 20.5304 100H32.7508V93.4097C32.7508 86.0058 33.4026 84.2972 36.8243 82.5072C40.5719 80.5546 43.9121 80.9614 46.6821 83.6463C48.9633 85.9244 49.0447 86.4126 49.0447 93.0029V100H61.1022C71.2859 100 73.4042 99.7559 75.3594 98.5355C79.5144 95.7692 79.9217 94.4674 80.0032 85.6803V77.3814L86.1134 76.8119C90.9201 76.4051 92.7939 75.8356 95.401 73.8829C99.6374 70.8725 102 66.2349 102 61.0277C102 55.902 100.941 53.1357 97.6821 49.6371C94.2604 46.0572 90.8387 44.674 85.4617 44.674H81.0623L80.492 41.5823C80.2476 39.9551 80.0032 36.1311 80.0032 33.1207C80.0032 28.1576 79.7588 27.344 77.6406 24.9845C75.278 22.2996 75.1965 22.2996 66.3978 21.8928L57.599 21.486L57.1917 16.1975C56.7029 10.5835 55.3179 7.1663 52.1406 4.23727C47.7412 0.0878273 40.0016 -1.21395 34.3802 1.2269ZM43.3419 8.06128C43.7492 8.06128 45.1342 9.03761 46.5192 10.1767C49.0447 12.2921 49.0447 12.2921 49.0447 20.7537V29.2153H59.3099C64.9313 29.2153 70.2268 29.6221 71.123 30.0289C72.508 30.8426 72.6709 31.8189 72.6709 41.3382V51.7525L80.8994 52.2407C87.9872 52.5661 89.3722 52.8916 91.1645 54.6002C94.0974 57.2851 94.9121 59.8073 93.853 63.0618C92.2236 68.0249 89.861 69.0826 80.7364 69.0826H72.6709V79.1714C72.6709 84.704 72.4265 89.8298 72.1821 90.562C71.7748 91.6197 70.3083 91.8638 64.524 91.8638H57.4361L57.0288 87.7144C56.4585 82.5072 53.1182 77.6255 48.3115 75.022C38.3722 69.8148 25.8259 76.5678 24.7668 87.8771L24.3594 91.9452L16.5383 91.7011L8.71725 91.457L8.47284 84.4599L8.22843 77.4628L12.8722 76.8933C18.2492 76.2424 19.9601 75.5101 23.6262 72.0116C26.8035 69.0012 29.0847 62.2482 28.27 58.2614C26.6406 50.6948 21.0192 45.569 13.4425 44.7554L8.71725 44.2672L8.47284 37.921C8.3099 33.8529 8.55431 31.0866 9.20607 30.3544C9.9393 29.4594 12.7093 29.2153 21.4265 29.2153H32.7508V21.2419C32.7508 15.2211 33.0767 12.8616 34.0543 11.3971C35.6022 9.28171 39.9201 7.08494 41.5495 7.65447C42.2013 7.89856 42.9345 8.06128 43.3419 8.06128Z" fill="white"/>
</svg>
