<svg width="100" height="58" viewBox="0 0 100 58" fill="none" xmlns="http://www.w3.org/2000/svg">
<path d="M100 55C100 56.6569 98.6569 58 97 58H58C56.3431 58 55 56.6569 55 55V25.2857C55 23.6289 56.3431 22.2857 58 22.2857H97C98.6569 22.2857 100 23.6289 100 25.2857V55Z"/>
          <path d="M77.2238 31.8004C76.9023 33.7292 75.2336 35.1428 73.2782 35.1428H59C56.7909 35.1428 55 33.352 55 31.1428V25.3728C55 24.7518 55.1446 24.1394 55.4223 23.584L64.3846 5.65945C64.7834 4.86179 65.4374 4.22028 66.2426 3.83686L71.6841 1.24567C72.2213 0.989853 72.8088 0.857109 73.4038 0.857109H78.9801C79.6493 0.857109 80.3079 1.02504 80.8955 1.34553L84.505 3.31436C86.8399 4.58795 87.3047 7.74329 85.4362 9.63606L80.8906 14.2407C80.3111 14.8277 79.9272 15.5796 79.7916 16.3932L77.2238 31.8004Z" fill="#d2d2d2"/>
          <path d="M45 55C45 56.6569 43.6569 58 42 58H2.99999C1.34314 58 -1.14441e-05 56.6569 -1.14441e-05 55V25.2857C-1.14441e-05 23.6289 1.34314 22.2857 2.99999 22.2857H42C43.6569 22.2857 45 23.6289 45 25.2857V55Z" fill="#d2d2d2"/>
          <path d="M22.2238 31.8004C21.9023 33.7292 20.2336 35.1428 18.2782 35.1428H4.00003C1.79089 35.1428 3.24249e-05 33.352 3.24249e-05 31.1428V25.3728C3.24249e-05 24.7518 0.144611 24.1394 0.422323 23.584L9.38458 5.65945C9.78341 4.86179 10.4374 4.22028 11.2426 3.83686L16.6841 1.24567C17.2213 0.989853 17.8088 0.857109 18.4038 0.857109H23.9801C24.6493 0.857109 25.3079 1.02504 25.8955 1.34553L29.505 3.31436C31.8399 4.58795 32.3047 7.74329 30.4362 9.63606L25.8906 14.2407C25.3111 14.8277 24.9272 15.5796 24.7916 16.3932L22.2238 31.8004Z" fill="#d2d2d2"/>
</svg>
